<svg width="32" height="32" viewBox="0 0 32 32" fill="none" xmlns="http://www.w3.org/2000/svg">
<g clip-path="url(#clip0_2420_998)">
<path d="M27.8826 16.0474C27.8826 16.0474 25.7194 19.2398 24.0784 21.2916C22.0202 23.7607 19.7597 25.3044 16.3651 25.3044C11.4269 25.3044 7.31041 21.2916 7.31041 16.3534V16.0474C7.20545 11.1092 11.1146 6.88904 16.0528 6.79047H16.3587C19.752 6.79047 21.9152 8.23048 24.072 10.8033C25.8294 12.8551 27.8826 15.9425 27.8826 16.0474L31.5894 10.9018C28.8131 2.56904 19.7584 -1.95832 11.3232 0.816716C2.88673 3.59176 -1.53567 12.6529 1.23937 21.0894C4.01441 29.5258 13.0691 33.9482 21.5043 31.1732C26.2339 29.6295 30.0445 25.8254 31.5882 21.0894L27.8826 16.0474Z" fill="#0032FF"/>
</g>
<defs>
<clipPath id="clip0_2420_998">
<rect width="32" height="32" fill="white"/>
</clipPath>
</defs>
</svg>
