<svg width="32" height="32" viewBox="0 0 32 32" fill="none" xmlns="http://www.w3.org/2000/svg">
<g clip-path="url(#clip0_2420_1106)">
<g clip-path="url(#clip1_2420_1106)">
<path fill-rule="evenodd" clip-rule="evenodd" d="M20.0154 29.9918L17.001 31.7326C16.3597 32.1025 15.5994 32.0782 15.0003 31.7338L14.9991 31.7364L8.93825 28.2369C8.90113 28.2151 8.86529 28.1934 8.83073 28.1703L2.87361 24.731C2.23361 24.3598 1.87521 23.6878 1.87649 22.9966H1.87265V15.9975C1.87265 15.9566 1.87393 15.9156 1.87649 15.8759V14.8263L5.88033 12.5146V15.8759C5.88289 15.9182 5.88417 15.9604 5.88417 16.0026V21.8446L20.0154 29.9918Z" fill="url(#paint0_linear_2420_1106)"/>
<path fill-rule="evenodd" clip-rule="evenodd" d="M26.0954 5.51929L29.1264 7.27033C29.7664 7.64153 30.1248 8.31353 30.1235 9.00473H30.1274V16.0038C30.1274 16.0447 30.1261 16.0844 30.1235 16.1254V22.9951C30.1248 23.7375 29.7216 24.3865 29.1226 24.7334L22.048 28.8178L18.0429 26.5049L26.1197 21.8418L26.0954 5.51929Z" fill="url(#paint1_linear_2420_1106)"/>
<path fill-rule="evenodd" clip-rule="evenodd" d="M17.001 0.264954L23.0618 3.76319C23.0989 3.78495 23.1347 3.80671 23.1693 3.82975L24.0615 4.34431V8.96767L21.1674 7.29727C21.1315 7.27935 21.0957 7.26015 21.0599 7.23967L15.9962 4.31615L1.8765 12.4774V9.00607C1.87522 8.26367 2.27842 7.61471 2.87746 7.26783L14.9991 0.268794C15.6403 -0.101126 16.4007 -0.0768062 16.9997 0.267514L17.001 0.264954Z" fill="url(#paint2_linear_2420_1106)"/>
<path d="M15.977 24.247C14.3488 24.247 12.8743 23.5865 11.8067 22.519C10.7392 21.4514 10.0787 19.9769 10.0787 18.3487C10.0787 15.6671 10.0915 12.9945 10.0813 10.2796L13.5808 8.25977L13.5437 12.9382L13.5424 12.9753C14.2848 12.6386 15.1091 12.4505 15.977 12.4505C17.6051 12.4505 19.0797 13.111 20.1472 14.1785C21.2147 15.246 21.8752 16.7206 21.8752 18.3487C21.8752 19.9769 21.2147 21.4514 20.1472 22.519C19.0797 23.5865 17.6051 24.247 15.977 24.247ZM14.2503 20.0754C14.6919 20.517 15.3024 20.791 15.977 20.791C16.6515 20.791 17.2621 20.5183 17.7037 20.0754C18.1453 19.6338 18.4192 19.0233 18.4192 18.3487C18.4192 17.6742 18.1453 17.0636 17.7037 16.622C17.2621 16.1804 16.6515 15.9065 15.977 15.9065C15.3024 15.9065 14.6919 16.1804 14.2503 16.622C13.8087 17.0636 13.5347 17.6742 13.5347 18.3487C13.5347 19.0233 13.8074 19.6338 14.2503 20.0754Z" fill="url(#paint3_linear_2420_1106)"/>
</g>
</g>
<defs>
<linearGradient id="paint0_linear_2420_1106" x1="10.9438" y1="32.001" x2="10.9438" y2="12.5151" gradientUnits="userSpaceOnUse">
<stop stop-color="#E9AF21"/>
<stop offset="1" stop-color="#F8C42F"/>
</linearGradient>
<linearGradient id="paint1_linear_2420_1106" x1="24.0856" y1="28.8201" x2="24.0856" y2="5.52219" gradientUnits="userSpaceOnUse">
<stop stop-color="#E9AF21"/>
<stop offset="1" stop-color="#F8C42F"/>
</linearGradient>
<linearGradient id="paint2_linear_2420_1106" x1="12.967" y1="12.4769" x2="12.967" y2="-0.00102617" gradientUnits="userSpaceOnUse">
<stop stop-color="#E9AF21"/>
<stop offset="1" stop-color="#F8C42F"/>
</linearGradient>
<linearGradient id="paint3_linear_2420_1106" x1="15.977" y1="24.2472" x2="15.977" y2="8.26041" gradientUnits="userSpaceOnUse">
<stop stop-color="#E9AF21"/>
<stop offset="1" stop-color="#F8C42F"/>
</linearGradient>
<clipPath id="clip0_2420_1106">
<rect width="32" height="32" fill="white"/>
</clipPath>
<clipPath id="clip1_2420_1106">
<rect width="32" height="32" fill="white"/>
</clipPath>
</defs>
</svg>
