<svg width="32" height="32" viewBox="0 0 32 32" fill="none" xmlns="http://www.w3.org/2000/svg">
<g clip-path="url(#clip0_2420_923)">
<path d="M20.2864 11.3059H12.1824C11.8384 11.3059 11.5564 11.5879 11.5564 11.9319V20.0359C11.5564 20.3799 11.8384 20.6619 12.1824 20.6619H20.2864C20.6304 20.6619 20.9124 20.3799 20.9124 20.0359V11.9319C20.9124 11.5879 20.6304 11.3059 20.2864 11.3059Z" fill="white"/>
<path d="M10.9324 1.98193H2.82839C2.48439 1.98193 2.20239 2.26393 2.20239 2.60793V10.7119C2.20239 11.0559 2.48439 11.3379 2.82839 11.3379H10.9324C11.2764 11.3379 11.5584 11.0559 11.5584 10.7119V2.60793C11.5564 2.26393 11.2764 1.98193 10.9324 1.98193Z" fill="white"/>
<path d="M29.6104 1.98193H21.5064C21.1624 1.98193 20.8804 2.26393 20.8804 2.60793V10.7119C20.8804 11.0559 21.1624 11.3379 21.5064 11.3379H29.6104C29.9544 11.3379 30.2364 11.0559 30.2364 10.7119V2.60793C30.2364 2.26393 29.9544 1.98193 29.6104 1.98193Z" fill="white"/>
<path d="M10.9324 20.6299H2.82839C2.48439 20.6299 2.20239 20.9119 2.20239 21.2559V29.3599C2.20239 29.7039 2.48439 29.9859 2.82839 29.9859H10.9324C11.2764 29.9859 11.5584 29.7039 11.5584 29.3599V21.2559C11.5564 20.9119 11.2764 20.6299 10.9324 20.6299Z" fill="white"/>
<path d="M29.6104 20.6299H21.5064C21.1624 20.6299 20.8804 20.9119 20.8804 21.2559V29.3599C20.8804 29.7039 21.1624 29.9859 21.5064 29.9859H29.6104C29.9544 29.9859 30.2364 29.7039 30.2364 29.3599V21.2559C30.2364 20.9119 29.9544 20.6299 29.6104 20.6299Z" fill="white"/>
</g>
<defs>
<clipPath id="clip0_2420_923">
<rect width="30" height="30" fill="white" transform="translate(1 1)"/>
</clipPath>
</defs>
</svg>
